<svg height="512" viewBox="0 0 64 64" width="512" xmlns="http://www.w3.org/2000/svg" xmlns:xlink="http://www.w3.org/1999/xlink"><linearGradient id="New_Gradient_Swatch_1" gradientUnits="userSpaceOnUse" x1="32" x2="32" y1="1.701" y2="61.912"><stop offset="0" stop-color="#fff33b"/><stop offset=".014" stop-color="#fee72e"/><stop offset=".042" stop-color="#fed51b"/><stop offset=".07" stop-color="#fdca10"/><stop offset=".1" stop-color="#fdc70c"/><stop offset=".4" stop-color="#f3903f"/><stop offset=".8" stop-color="#ed683c"/><stop offset="1" stop-color="#e93e3a"/></linearGradient><g id="Compass-2" fill="url(#New_Gradient_Swatch_1)" data-name="Compass"><path d="m61.243 31.03-5.381-1.345a23.6 23.6 0 0 0 -5.354-12.918l2.859-4.762a1 1 0 0 0 -1.367-1.372l-4.762 2.859a23.628 23.628 0 0 0 -12.921-5.349l-1.347-5.386a1 1 0 0 0 -1.94 0l-1.345 5.381a23.6 23.6 0 0 0 -12.918 5.354l-4.762-2.859a1 1 0 0 0 -1.372 1.372l2.859 4.762a23.62 23.62 0 0 0 -5.349 12.917l-5.386 1.346a1 1 0 0 0 0 1.94l5.381 1.345a23.6 23.6 0 0 0 5.354 12.918l-2.859 4.767a1 1 0 0 0 1.372 1.372l4.762-2.859a23.628 23.628 0 0 0 12.916 5.349l1.347 5.386a1 1 0 0 0 1.94 0l1.345-5.381a23.6 23.6 0 0 0 12.918-5.354l4.767 2.854a1 1 0 0 0 1.367-1.367l-2.859-4.762a23.628 23.628 0 0 0 5.349-12.916l5.386-1.347a1 1 0 0 0 0-1.94zm-7.443-1.861-2.1-.525a19.876 19.876 0 0 0 -3.4-8.2l1.111-1.851a21.571 21.571 0 0 1 4.389 10.576zm-6.633-6.838a17.91 17.91 0 0 1 2.394 5.779l-5.1-1.275zm-4.733 4-2.679-.67 5.458-5.461-1.413-1.413-5.457 5.457-.67-2.679 11.919-7.156zm-6.544-11.893a17.91 17.91 0 0 1 5.779 2.394l-4.5 2.7zm9.519.149-1.851 1.113a19.876 19.876 0 0 0 -8.2-3.4l-.525-2.1a21.6 21.6 0 0 1 10.576 4.387zm-18.574 4.949-4.5-2.7a17.91 17.91 0 0 1 5.779-2.394zm2.335-9.336-.526 2.1a19.876 19.876 0 0 0 -8.2 3.4l-1.851-1.111a21.567 21.567 0 0 1 10.577-4.389zm-2.842 11.365-.67 2.679-5.458-5.457-1.413 1.413 5.457 5.457-2.679.67-7.156-11.918zm-6.792 5.27-5.1 1.275a17.91 17.91 0 0 1 2.394-5.779zm-4.949-8.244 1.113 1.851a19.876 19.876 0 0 0 -3.4 8.2l-2.1.525a21.6 21.6 0 0 1 4.387-10.576zm-4.387 16.24 2.1.525a19.876 19.876 0 0 0 3.4 8.2l-1.111 1.851a21.571 21.571 0 0 1 -4.389-10.576zm6.633 6.838a17.91 17.91 0 0 1 -2.394-5.779l5.1 1.275zm4.733-4 2.679.67-5.458 5.461 1.413 1.413 5.457-5.457.67 2.679-11.918 7.156zm6.545 11.89a17.91 17.91 0 0 1 -5.779-2.394l4.5-2.7zm-9.519-.149 1.85-1.11a19.876 19.876 0 0 0 8.2 3.4l.525 2.1a21.6 21.6 0 0 1 -10.576-4.387zm18.574-4.949 4.5 2.7a17.91 17.91 0 0 1 -5.779 2.394zm-2.335 9.339.525-2.1a19.876 19.876 0 0 0 8.2-3.4l1.851 1.111a21.571 21.571 0 0 1 -10.576 4.389zm2.841-11.366.67-2.679 5.458 5.458 1.413-1.413-5.457-5.457 2.679-.67 7.156 11.919zm6.792-5.27 5.1-1.275a17.91 17.91 0 0 1 -2.394 5.779zm4.949 8.244-1.113-1.85a19.876 19.876 0 0 0 3.4-8.2l2.1-.525a21.6 21.6 0 0 1 -4.387 10.576zm-11.856-8.578a1 1 0 0 0 -.727.727l-4.83 19.32-4.83-19.32a1 1 0 0 0 -.727-.727l-19.32-4.83 19.32-4.83a1 1 0 0 0 .727-.727l4.83-19.32 4.83 19.32a1 1 0 0 0 .727.727l19.32 4.83z"/><path d="m33 27.1v-12.1h-2v12.1a5.016 5.016 0 0 0 -3.9 3.9h-11.1v2h11.1a5.016 5.016 0 0 0 3.9 3.9v11.1h2v-11.1a5.016 5.016 0 0 0 3.9-3.9h11.1v-2h-11.1a5.016 5.016 0 0 0 -3.9-3.9zm-1 7.9a3 3 0 1 1 3-3 3 3 0 0 1 -3 3z"/></g></svg>