<svg height="512" viewBox="0 0 60 60" width="512" xmlns="http://www.w3.org/2000/svg"><g id="Page-1" fill="none" fill-rule="evenodd"><g id="021---Navigation-Symbol" fill-rule="nonzero"><circle id="Oval" cx="30" cy="30" fill="#f0c419" r="29"/><path id="Shape" d="m30 1v58c-16.0162576-.0000002-28.99999957-12.9837424-28.99999957-29s12.98374197-28.99999976 28.99999957-29z" fill="#f0c419"/><path id="Shape" d="m30 60c-16.5685425 0-30-13.4314575-30-30s13.4314575-30 30-30 30 13.4314575 30 30c-.018737 16.5607751-13.4392249 29.981263-30 30zm0-58c-15.463973 0-28 12.536027-28 28s12.536027 28 28 28 28-12.536027 28-28c-.0173046-15.4567995-12.5432005-27.9826954-28-28z" fill="#d25627"/><path id="Shape" d="m45.03 48.73-14.28-12.98c-.4399072-.3466779-1.0600928-.3466779-1.5 0l-14.28 12.98c-.4362636.3412865-1.0480331.3446527-1.4880258.0081876-.4399928-.336465-.5970332-.9277446-.3819742-1.4381876l15.78-40.54c.1824409-.45880301.6262542-.75993713 1.12-.75993713s.9375591.30113412 1.12.75993713l15.78 40.54c.215059.510443.0580186 1.1017226-.3819742 1.4381876-.4399927.3364651-1.0517622.3330989-1.4880258-.0081876z" fill="#e64c3c"/></g></g></svg>